<?xml version="1.0" encoding="UTF-8" standalone="no"?>
<!-- Created with Inkscape (http://www.inkscape.org/) -->
<svg version="1.1" id="svg870" xml:space="preserve" width="286.84933" height="281.09332" viewBox="0 0 286.84933 281.09332" xmlns="http://www.w3.org/2000/svg" xmlns:svg="http://www.w3.org/2000/svg"><defs id="defs874"><clipPath clipPathUnits="userSpaceOnUse" id="clipPath884"><path d="M 0,210.82 H 215.137 V 0 H 0 Z" id="path882"/></clipPath></defs><g id="g876" transform="matrix(1.3333333,0,0,-1.3333333,0,281.09333)"><g id="g878"><g id="g880" clip-path="url(#clipPath884)"><g id="g886" transform="translate(178.5264,103.417)"><path d="m 0,0 c 0,-38.54 -31.244,-69.784 -69.785,-69.784 -38.54,0 -69.783,31.244 -69.783,69.784 0,38.541 31.243,69.785 69.783,69.785 C -31.244,69.785 0,38.541 0,0" style="fill:#1d1d1b;fill-opacity:1;fill-rule:nonzero;stroke:none" id="path888"/></g><g id="g890" transform="translate(98.4561,124.7485)"><path d="m 0,0 c 0,-3.614 -9.824,-6.544 -21.942,-6.544 -12.119,0 -21.943,2.93 -21.943,6.544 0,3.614 9.824,6.544 21.943,6.544 C -9.824,6.544 0,3.614 0,0" style="fill:#ffffff;fill-opacity:1;fill-rule:nonzero;stroke:none" id="path892"/></g><g id="g894" transform="translate(162.9121,124.7485)"><path d="m 0,0 c 0,-3.614 -9.824,-6.544 -21.942,-6.544 -12.119,0 -21.943,2.93 -21.943,6.544 0,3.614 9.824,6.544 21.943,6.544 C -9.824,6.544 0,3.614 0,0" style="fill:#ffffff;fill-opacity:1;fill-rule:nonzero;stroke:none" id="path896"/></g><g id="g898" transform="translate(119.0273,63.3057)"><path d="m 0,0 c 0,-3.934 -4.605,-7.121 -10.285,-7.121 -5.681,0 -10.286,3.187 -10.286,7.121 0,3.934 4.605,7.123 10.286,7.123 C -4.605,7.123 0,3.934 0,0" style="fill:#ffffff;fill-opacity:1;fill-rule:nonzero;stroke:none" id="path900"/></g><g id="g902" transform="translate(108.7422,119.7866)"><path d="M 0,0 V -42.28" style="fill:none;stroke:#ffffff;stroke-width:4;stroke-linecap:butt;stroke-linejoin:miter;stroke-miterlimit:10;stroke-dasharray:none;stroke-opacity:1" id="path904"/></g><g id="g906" transform="translate(84.748,124.7485)"><path d="m 0,0 c 0,-4.547 -3.688,-8.234 -8.234,-8.234 -4.548,0 -8.234,3.687 -8.234,8.234 0,4.547 3.686,8.234 8.234,8.234 C -3.688,8.234 0,4.547 0,0" style="fill:#1d1d1b;fill-opacity:1;fill-rule:nonzero;stroke:none" id="path908"/></g><g id="g910" transform="translate(81.3262,126.4751)"><path d="m 0,0 c 0,-1.627 -1.318,-2.946 -2.945,-2.946 -1.628,0 -2.947,1.319 -2.947,2.946 0,1.627 1.319,2.946 2.947,2.946 C -1.318,2.946 0,1.627 0,0" style="fill:#ffffff;fill-opacity:1;fill-rule:nonzero;stroke:none" id="path912"/></g><g id="g914" transform="translate(149.2031,124.8101)"><path d="m 0,0 c 0,-4.547 -3.688,-8.234 -8.234,-8.234 -4.548,0 -8.234,3.687 -8.234,8.234 0,4.547 3.686,8.234 8.234,8.234 C -3.688,8.234 0,4.547 0,0" style="fill:#1d1d1b;fill-opacity:1;fill-rule:nonzero;stroke:none" id="path916"/></g><g id="g918" transform="translate(145.7813,126.5366)"><path d="m 0,0 c 0,-1.627 -1.318,-2.946 -2.945,-2.946 -1.628,0 -2.947,1.319 -2.947,2.946 0,1.627 1.319,2.946 2.947,2.946 C -1.318,2.946 0,1.627 0,0" style="fill:#ffffff;fill-opacity:1;fill-rule:nonzero;stroke:none" id="path920"/></g></g></g></g></svg>