<?xml version="1.0" encoding="UTF-8" standalone="no"?>
<!-- Created with Inkscape (http://www.inkscape.org/) -->

<svg
   width="95%"
   viewBox="0 0 261.15362 168.69147"
   version="1.1"
   id="svg1"
   xml:space="preserve"
   inkscape:version="1.3.2 (091e20e, 2023-11-25, custom)"
   sodipodi:docname="ll-logo-morph.svg"
   inkscape:export-filename="ll-logo-morph.svg"
   inkscape:export-xdpi="96"
   inkscape:export-ydpi="96"
   xmlns:inkscape="http://www.inkscape.org/namespaces/inkscape"
   xmlns:sodipodi="http://sodipodi.sourceforge.net/DTD/sodipodi-0.dtd"
   xmlns="http://www.w3.org/2000/svg"
   xmlns:svg="http://www.w3.org/2000/svg"><sodipodi:namedview
     id="namedview1"
     pagecolor="#ffffff"
     bordercolor="#000000"
     borderopacity="0.25"
     inkscape:showpageshadow="2"
     inkscape:pageopacity="0.0"
     inkscape:pagecheckerboard="0"
     inkscape:deskcolor="#d1d1d1"
     inkscape:document-units="mm"
     inkscape:zoom="1.8406719"
     inkscape:cx="391.43315"
     inkscape:cy="409.90467"
     inkscape:window-width="1536"
     inkscape:window-height="937"
     inkscape:window-x="-8"
     inkscape:window-y="-8"
     inkscape:window-maximized="1"
     inkscape:export-bgcolor="#ffffff00"
     inkscape:current-layer="layer4" /><defs
     id="defs1" /><g
     inkscape:label="Layer 1"
     inkscape:groupmode="layer"
     id="layer1"
     transform="translate(153.69057,-321.19793)"
     style="display:inline"><g
       transform="translate(-178.23266,496.67533)"
       style="display:inline"
       id="g1"><path
         style="fill:#ffffff;fill-opacity:1;stroke:#d40000;stroke-width:6.2;stroke-dasharray:none;stroke-opacity:1"
         d="m 164.78376,-170.27462 c 34.65932,-0.17658 89.63896,5.80906 102.32181,18.49189 14.0153,14.01531 11.24207,29.45901 4.77704,61.639643 -3.98393,19.830645 -9.46118,39.910235 -25.27224,55.167477 -16.24993,15.680757 -65.14452,15.331949 -98.31523,19.108289 -35.60084,4.052997 -102.254333,11.1587188 -115.574331,-1.54099 -12.552317,-11.967777 12.350465,-78.349161 22.96077,-115.112019 9.54066,-33.05673 96.581371,-37.6905 109.102181,-37.75429 z"
         id="outline1"
         sodipodi:nodetypes="ssssssss" /><g
         id="letters1"
         style="fill:#000080;fill-opacity:1;stroke-width:0;stroke-dasharray:none"
         transform="matrix(0.94949955,0,0,0.94949955,9.9141432,-178.59597)"><path
           id="a2-1"
           style="fill:#000080;fill-opacity:1;stroke:none;stroke-width:0;stroke-dasharray:none;stroke-opacity:1"
           d="m 144.13022,92.724573 c -9.16395,-0.153102 -14.01016,2.846836 -19.97449,4.976957 -6.81639,2.43442 -15.41786,7.62791 -14.44408,13.30823 0.97377,5.68032 10.06228,3.24578 18.9885,0.64906 8.92623,-2.59672 11.19819,-0.64904 11.68508,1.94768 0.48688,2.59672 -1.78514,5.35562 -6.0048,6.0048 -4.21967,0.64919 -8.92635,-2.27188 -15.58045,6.81664 -6.65409,9.08851 -5.19341,26.94104 -0.16226,32.13447 5.03114,5.19345 10.38673,5.19333 17.04082,0.64906 6.65408,-4.54425 14.60693,-16.22959 19.63808,-15.74271 5.03114,0.48689 1.78508,5.84276 3.57032,10.06244 1.78525,4.21966 4.86897,4.21938 7.4657,4.21938 2.59671,0 4.8687,-0.81125 6.16706,-3.89485 1.29836,-3.0836 -2.27196,-10.7115 -3.57032,-18.82625 -1.29836,-8.11475 2.10943,-14.93109 2.10943,-21.90977 0,-6.97868 -7.62766,-20.12487 -22.72109,-20.12487 -1.50123,-0.162294 -2.89836,-0.248396 -4.2075,-0.270267 z m -0.60771,34.179827 c 3.51137,0.0577 6.77285,1.83636 -0.37828,9.74824 -7.62786,8.43933 -13.14572,7.62775 -14.44408,6.0048 -1.29835,-1.62296 -5.19356,-5.84273 3.40807,-12.9837 2.92131,-1.62295 6.9787,-2.59671 10.71149,-2.75901 0.2333,-0.0101 0.4687,-0.0142 0.7028,-0.0103 z" /><path
           id="a1-1"
           style="fill:#000080;fill-opacity:1;stroke:none;stroke-width:0;stroke-dasharray:none;stroke-opacity:1"
           d="m 132.04569,27.052612 c -0.74198,-0.0065 -1.47936,0.01007 -2.20969,0.05064 -14.60653,3.732782 -24.344,12.821587 -25.64236,14.769125 -1.29836,1.94754 -3.89548,7.952392 4.86844,8.439278 8.76393,0.486883 11.03639,-4.057652 17.2036,1.460376 6.16721,5.518025 -3.57041,19.313086 -5.84254,21.747509 -2.27213,2.434424 -11.84747,15.904847 -0.32453,16.554029 11.52294,0.649178 18.98836,-15.417755 25.15557,-14.930872 6.16721,0.486886 -2.92163,11.036113 4.38165,10.549227 7.30327,-0.486883 11.68552,-8.601661 14.76912,-18.826241 3.0836,-10.22458 2.27229,-20.936412 -3.57032,-27.915092 -5.47746,-6.542514 -17.6593,-11.801105 -28.78894,-11.897982 z M 144.2868,50.1835 c 0.2726,0.0035 0.54139,0.04701 0.80512,0.128158 8.60163,0.649178 5.68027,9.412862 5.68027,9.412862 -1.94754,6.978683 -9.25111,5.842537 -9.25111,5.842537 -5.03115,-0.649181 -5.19336,-4.057192 -3.08354,-9.088334 1.84611,-4.402249 3.94103,-6.319631 5.84926,-6.295223 z" /><path
           style="fill:#000080;fill-opacity:1;stroke:none;stroke-width:0;stroke-dasharray:none;stroke-opacity:1"
           d="m 87.477049,27.103279 c 5.193442,0.324591 8.763933,3.895082 10.386885,5.842621 1.622949,1.947543 1.136065,5.680329 -5.355738,10.22459 -6.491804,4.544264 -8.763934,7.140985 -10.549181,13.957377 -1.785244,6.816394 -1.298361,9.413115 0.649182,10.711476 1.947539,1.298361 21.585243,-3.895082 25.480323,-2.759017 3.89509,1.136066 6.00492,6.329508 2.92131,10.062295 -3.0836,3.732789 -5.68032,10.062297 -25.155733,9.900002 -19.47541,-0.162296 -15.418033,2.921309 -20.773771,3.2459 -5.355738,0.324591 -12.983606,-0.162295 -13.47049,-4.381966 -0.486886,-4.219672 1.460656,-7.627868 9.737704,-16.554098 8.27705,-8.926231 12.49672,-28.563934 15.742623,-32.459016 3.245901,-3.895082 4.706557,-6.816394 10.386886,-7.790164 z"
           id="l1-1" /><path
           style="fill:#000080;fill-opacity:1;stroke:none;stroke-width:0;stroke-dasharray:none;stroke-opacity:1"
           d="m 178.84918,23.695082 c 9.08852,0 10.87377,1.29836 12.33442,6.654097 1.46066,5.355738 -5.68032,13.632788 -5.51803,16.554098 0.1623,2.921312 1.78525,8.601641 6.16722,1.947542 4.38196,-6.654099 3.40819,-12.821311 11.84753,-14.281967 8.43935,-1.460656 7.14099,5.355738 6.32951,6.978689 -0.81147,1.622949 -6.81639,7.952457 -3.2459,10.711474 3.57049,2.759017 10.71148,-4.21967 13.63279,-12.009834 2.92131,-7.790164 6.16721,-13.308198 18.33934,-13.145902 12.17213,0.162295 20.77377,12.172129 10.22459,22.559015 -10.54918,10.386885 -26.94098,29.375409 -28.88852,31.160656 -1.94754,1.785247 -6.00492,4.381968 -11.52295,3.732786 -5.51803,-0.649179 -8.60164,-3.2459 -11.36066,-6.167212 -2.75902,-2.921312 -3.2459,-3.245903 -6.81639,0 -3.57049,3.2459 -9.73771,10.873769 -17.69017,10.22459 -7.95245,-0.649182 -7.62786,-6.167213 -4.54426,-13.795081 3.08361,-7.627869 10.0623,-21.260657 6.97869,-26.291805 -3.08361,-5.031147 -12.49672,-9.737705 -9.7377,-15.904916 2.3656,-5.287791 3.89508,-9.088525 13.47049,-8.92623 z"
           id="w1-1"
           sodipodi:nodetypes="csssssssssssssssssc" /><path
           style="fill:#000080;fill-opacity:1;stroke:none;stroke-width:0;stroke-dasharray:none;stroke-opacity:1"
           d="m 104.35574,88.937705 c 4.38098,-0.09321 3.2459,4.706556 1.13606,10.386885 -2.10984,5.68033 -8.601639,9.41311 -13.795079,10.71147 -5.193442,1.29836 -22.382404,8.60142 -22.234426,18.66394 0.162295,11.03606 18.772656,5.97063 27.265574,3.2459 10.645101,-3.4152 12.172131,5.03115 11.036061,12.17213 -1.13606,7.14098 -3.40819,13.47049 -14.281964,13.1459 -10.873769,-0.32459 -14.281968,-1.29836 -20.773771,0.48689 -6.491803,1.78524 -11.036064,6.16721 -22.559015,4.86885 -11.522951,-1.29836 -17.690163,-5.84262 -18.50164,-11.68525 -0.811475,-5.84262 0.811477,-11.52295 12.983606,-19.96229 12.172133,-8.43934 16.391803,-15.74262 22.072132,-25.64262 C 72.383607,95.429508 81.309836,93.157375 89.1,93.157375 c 14.44426,0 12.00651,-4.150538 15.25574,-4.21967 z"
           id="l2-1"
           sodipodi:nodetypes="ssssssssssssss" /><path
           style="fill:#000080;fill-opacity:1;stroke:none;stroke-width:0;stroke-dasharray:none;stroke-opacity:1"
           d="m 194.7541,84.555736 c 6.97868,-0.162295 13.63278,6.97869 13.79508,11.036067 0.16229,4.057375 -4.54426,7.303277 -4.38197,12.009837 0.1623,4.70655 0.48689,5.19344 2.27213,5.35574 1.78525,0.16229 5.03115,-2.92132 6.32951,-7.79017 1.29836,-4.86885 5.84262,-17.690161 14.11967,-16.878687 8.27705,0.811477 4.86885,6.167213 3.73279,12.009837 -1.13607,5.84262 3.08361,11.52295 6.16721,1.13607 3.08361,-10.38689 -0.16229,-11.036069 5.35574,-21.58525 5.51803,-10.549181 15.25574,-18.663936 19.8,-16.554098 4.54426,2.109835 9.25082,6.654096 5.03114,15.093442 -4.21967,8.439343 -12.33442,24.668856 -13.63278,33.270496 -1.29836,8.60163 -3.08361,24.66885 -10.0623,30.51147 -6.97868,5.84262 -15.90491,11.03607 -20.93606,8.60164 -5.03115,-2.43443 -3.4082,-7.62787 -1.62295,-14.44426 1.78525,-6.8164 -3.2459,-7.30328 -8.27705,-3.08361 -5.03115,4.21967 -13.1459,19.31311 -22.88361,20.28688 -9.7377,0.97378 -10.38688,-18.98852 -1.94754,-30.99835 8.43935,-12.00984 2.43443,-18.01476 -1.78524,-16.5541 -4.21968,1.46065 -12.82132,-6.167216 -3.4082,-14.281969 9.41312,-8.114754 12.33443,-7.140985 12.33443,-7.140985 z"
           id="w2-1" /></g></g></g><g
     inkscape:label="Layer 2"
     inkscape:groupmode="layer"
     id="layer2"
     style="visbility:hidden"><g
       transform="translate(-26.594562,176.36114)"
       style="visibility:hidden"
       inkscape:export-filename="ll-logo-morph.svg"
       inkscape:export-xdpi="96"
       inkscape:export-ydpi="96"
       id="g2"><path
         style="fill:#ffffff;fill-opacity:1;stroke:#d40000;stroke-width:6.2;stroke-dasharray:none;stroke-opacity:1"
         d="m 164.18138,-160.63648 c 33.36166,-9.39676 71.56744,-8.64815 84.25029,4.03468 14.0153,14.01531 -4.41991,15.0018 18.63187,52.0015 10.69584,17.167563 20.05563,58.584135 4.24457,73.841377 -16.24993,15.680757 -82.01127,-0.932415 -115.18198,2.843925 -35.60084,4.052997 -84.182817,19.5920926 -97.502815,6.892384 -12.552317,-11.967777 -27.230613,-82.089136 -16.194181,-118.726326 11.04662,-36.67103 61.643116,-3.957 121.752246,-20.88754 z"
         id="outline2"
         sodipodi:nodetypes="ssssssss" /><g
         id="letters2"
         style="fill:#000080;fill-opacity:1;stroke-width:0;stroke-dasharray:none"
         transform="matrix(0.94949955,0,0,0.94949955,9.9141432,-178.59597)"><path
           id="a2-2"
           style="fill:#000080;fill-opacity:1;stroke:none;stroke-width:0;stroke-dasharray:none;stroke-opacity:1"
           d="m 150.01312,88.235468 c -9.15387,0.456214 -15.91636,1.411334 -21.37062,6.476564 -5.36539,4.982704 -5.92358,5.681598 -7.90685,12.003258 -2.53769,8.08889 -3.98908,12.56801 -3.13637,21.36306 1.08698,11.21145 -4.08062,19.98351 8.29232,22.61684 7.07239,1.50522 20.97223,-1.05258 25.59265,-7.65402 4.62043,-6.60142 -1.26553,-16.9176 3.75911,-17.46771 19.312,-2.11434 9.39822,15.89314 12.55867,19.21042 3.16045,3.31726 25.10524,4.01768 27.53464,3.1006 2.42938,-0.91707 4.26846,-2.47843 4.39414,-5.82186 0.12567,-3.34343 2.90957,-18.8408 1.76565,-26.97876 -1.22565,-8.71937 -4.33789,-11.92524 -8.61918,-17.436364 -5.09768,-6.562041 -19.75268,-10.563867 -42.86416,-9.412028 z m 15.54307,20.509642 c -0.0825,5.25557 -5.79629,4.81526 -9.80658,5.32641 -13.3217,1.69798 -9.87387,-6.46144 -8.6928,-10.81296 1.61059,-5.934035 4.48621,-7.291571 8.11469,-7.25641 5.03523,0.04879 10.45624,8.18284 10.38469,12.74296 z"
           sodipodi:nodetypes="ssssssssssssssssss" /><path
           id="a1-2"
           style="fill:#000080;fill-opacity:1;stroke:none;stroke-width:0;stroke-dasharray:none;stroke-opacity:1"
           d="m 135.37923,34.924683 c -14.83271,2.697274 -40.726836,1.068264 -47.857055,6.268185 -1.891163,1.379186 -3.334724,14.008552 5.429199,14.495438 8.763926,0.486883 38.025756,-13.13529 44.192966,-7.617262 6.16721,5.518025 -18.60527,-2.405178 -28.2854,13.701775 -1.71536,2.854215 -0.25021,27.213398 11.23967,28.30075 16.91553,1.600812 15.81625,-6.218629 22.30067,-6.762683 6.16474,-0.517231 8.49797,2.312804 11.5982,2.222432 7.31638,-0.213272 10.17878,-13.679459 10.40747,-18.667635 0.35482,-7.739212 -6.12081,-10.00086 -7.047,-19.055154 -1.12077,-10.956407 -9.30119,-15.19121 -21.97872,-12.885846 z m -7.78288,27.499295 c 7.60408,-4.072759 12.37751,2.171645 11.28782,8.067049 -1.3169,7.124654 -9.24773,10.517141 -12.61564,8.19771 -7.99434,-5.505594 -8.83469,-10.821707 1.32782,-16.264759 z"
           sodipodi:nodetypes="sssssssssssssss" /><path
           style="fill:#000080;fill-opacity:1;stroke:none;stroke-width:0;stroke-dasharray:none;stroke-opacity:1"
           d="m 64.961382,32.958618 c 5.190456,-0.601012 9.389931,2.003213 11.359977,3.479548 1.970042,1.476339 2.192877,4.924995 -3.362021,10.138384 -5.554899,5.213392 -6.992208,8.262343 -7.470371,14.714086 -0.47816,6.451745 -0.281894,17.720996 9.956339,5.737511 8.137425,-9.524565 19.315359,-5.321981 23.376476,-4.968095 4.061128,0.353887 5.894738,4.160992 4.782148,8.567894 -2.02458,8.019209 -9.740196,21.46754 -25.199006,17.693633 C 59.432044,83.689794 59.604397,90.752967 54.376035,91.967102 49.147673,93.181237 41.522278,94.05483 40.245921,90.334827 38.969562,86.614825 39.572912,78.999306 41.667142,67.709778 43.718183,56.653074 48.624577,44.251831 51.09607,40.182143 53.56756,36.112457 59.534823,34.8138 64.961382,32.958618 Z"
           id="l1-2"
           sodipodi:nodetypes="csssssssssssc" /><path
           style="fill:#000080;fill-opacity:1;stroke:none;stroke-width:0;stroke-dasharray:none;stroke-opacity:1"
           d="m 171.67481,29.068431 c 4.93893,0 13.34109,0.625453 14.80174,5.98119 1.46066,5.355738 -0.97327,8.932346 -0.81098,11.853656 0.1623,2.921312 2.38544,9.015642 4.42256,1.31312 2.02678,-7.663459 6.73891,-23.923705 15.17825,-25.384361 8.43935,-1.460656 2.70003,16.616737 1.88855,18.239688 -0.81147,1.622949 -3.96149,8.428274 -0.391,11.187291 3.57049,2.759017 10.71148,-4.21967 13.63279,-12.009834 2.92131,-7.790164 0.45741,-12.356564 12.62954,-12.194268 12.17213,0.162295 9.04037,14.383529 4.35618,28.427423 -4.04635,12.131547 -14.41114,13.673452 -16.35868,15.458699 -1.94754,1.785247 -11.26338,2.417673 -16.78141,1.768491 -5.51803,-0.649179 -4.03863,-6.071655 -5.00323,-11.011687 -0.77007,-3.943761 -2.61504,-4.527837 -4.79767,-0.224302 -2.89758,5.713224 0.46748,21.396165 -16.68411,19.478141 -7.92948,-0.886736 -9.23316,-4.030306 -9.61964,-7.133645 -1.01679,-8.164507 1.8533,-13.615706 -1.23031,-18.646854 -3.08361,-5.031147 -0.91989,-10.887796 -3.43197,-17.840065 -1.96857,-5.448076 -1.37602,-9.424978 8.19939,-9.262683 z"
           id="w1-2"
           sodipodi:nodetypes="csssssssssssssssssc" /><path
           style="fill:#000080;fill-opacity:1;stroke:none;stroke-width:0;stroke-dasharray:none;stroke-opacity:1"
           d="m 91.534505,100.27622 c 1.924056,5.74592 -8.601639,9.41311 -13.795079,10.71147 -5.193442,1.29836 -8.425109,7.64979 -8.277131,17.71231 0.162295,11.03606 24.799669,5.33621 33.292585,2.61148 10.64511,-3.4152 12.80655,-1.63029 11.67048,5.51069 -1.13606,7.14098 -1.09803,11.89312 -10.79263,15.36638 -12.079146,4.32757 -26.602525,1.41935 -35.085298,5.35574 -10.518518,4.88108 -12.297572,-2.98772 -15.646739,-10.09919 -2.513242,-5.33651 0.339296,-10.12056 -0.973689,-19.64508 -0.404521,-2.93444 -3.275293,-12.2533 2.405036,-22.1533 5.680329,-9.900001 11.159393,-11.997193 18.907398,-12.806556 9.638487,-1.006845 16.679712,2.61203 18.295067,7.436056 z"
           id="l2-2"
           sodipodi:nodetypes="ssssssssssss" /><path
           style="fill:#000080;fill-opacity:1;stroke:none;stroke-width:0;stroke-dasharray:none;stroke-opacity:1"
           d="m 223.4915,76.452963 c 5.01064,3.92518 -1.6574,13.63976 -1.4951,17.697137 0.16229,4.057371 -1.5165,8.21161 -1.35421,12.91817 0.1623,4.70655 -3.00432,17.03498 2.27213,17.01261 10.56994,-0.0448 1.852,-16.39485 3.15036,-21.2637 1.29836,-4.868847 0.99821,-19.204041 9.27526,-18.392567 8.27705,0.811477 3.65775,6.167215 2.52168,12.009841 -0.60259,3.099025 -0.22313,22.358486 3.08048,26.687626 3.88413,5.08987 9.5109,9.30076 10.9589,4.42326 3.08361,-10.3869 -12.84844,-16.78512 -7.33041,-27.3343 5.51803,-10.549185 8.74605,-16.695897 13.29031,-14.586059 4.54426,2.109835 7.9364,5.253826 9.87555,14.487889 1.83585,8.74212 -1.46491,12.55413 -2.76327,21.15577 -1.29836,8.60163 11.14686,14.37447 4.16817,20.21709 -6.97868,5.84262 -15.90491,11.03607 -20.93606,8.60164 -5.03115,-2.43443 -5.93316,-7.92422 -11.31178,-12.47622 -4.11888,-3.48586 -7.18199,1.62861 -8.12566,9.78437 -0.75475,6.52292 -10.57231,8.86734 -15.91977,3.93698 -7.19484,-6.63365 -4.72085,-14.81158 -5.12668,-29.48447 -0.37157,-13.43385 -17.01691,-28.332903 -3.2254,-40.222126 9.41312,-8.114754 14.35977,-8.804429 18.9955,-5.172941 z"
           id="w2-2"
           sodipodi:nodetypes="sssssssssssssssssssss" /></g></g></g><g
     inkscape:label="Layer 3"
     inkscape:groupmode="layer"
     id="layer3"
     style="visbility:hidden"><g
       transform="translate(-26.594562,176.36114)"
       style="visibility:hidden"
       inkscape:export-filename="ll-logo-morph.svg"
       inkscape:export-xdpi="96"
       inkscape:export-ydpi="96"
       id="g3"><path
         style="fill:#ffffff;fill-opacity:1;stroke:#d40000;stroke-width:6.2;stroke-dasharray:none;stroke-opacity:1"
         d="m 149.545,-167.95467 c 39.05359,-1.26544 82.03714,-8.4231 107.01799,8.10034 16.91673,11.18947 23.56317,27.63871 24.32379,66.231313 0.41876,21.247079 -3.93176,44.354324 -11.20493,62.864094 -8.25862,21.0176517 -78.75875,10.451434 -111.92946,14.227774 -35.60084,4.052997 -105.081133,-2.085491 -112.95232,-18.721276 -6.047261,-12.780909 -24.934738,-64.950615 -1.96437,-95.552065 11.04662,-14.71646 44.294076,-35.12776 106.7093,-37.15018 z"
         id="outline3"
         sodipodi:nodetypes="ssssssss" /><g
         id="letters3"
         style="fill:#000080;fill-opacity:1;stroke-width:0;stroke-dasharray:none"
         transform="matrix(0.94949955,0,0,0.94949955,9.9141432,-178.59597)"><path
           id="a2-3"
           style="fill:#000080;fill-opacity:1;stroke:none;stroke-width:0;stroke-dasharray:none;stroke-opacity:1"
           d="m 199.06922,115.3283 c -0.72681,-7.63307 -1.7164,-13.28232 -5.65987,-17.910051 -3.87921,-4.552333 -4.41499,-5.028935 -9.12967,-6.786087 -6.0327,-2.248364 -9.37521,-3.531833 -15.77961,-2.967611 -8.16396,0.719235 -12.12589,27.908789 -7.14931,29.694399 1.99747,0.71669 13.25511,2.16262 14.69468,-3.20162 1.63028,-6.07486 -1.21734,-12.64371 5.01863,-10.70222 5.67251,1.76606 5.75092,3.61707 4.46826,9.62856 -0.94472,4.42767 -1.64896,11.79484 -6.92226,10.28707 -10.98101,-3.13976 -17.19713,-2.26647 -22.75322,4.52503 -4.48043,5.47666 0.2817,21.79895 5.92549,27.95482 4.94581,5.39457 12.97477,7.24307 18.78498,5.88426 8.78349,-2.05416 5.8027,-10.09194 11.51244,-2.67376 4.86794,6.32451 12.14237,-3.66605 8.37407,-8.33074 -1.21787,-1.50756 -4.21552,-4.44232 -3.93989,-5.89773 1.36886,-7.22798 4.39032,-10.23254 2.55528,-29.50432 z m -25.0101,36.5858 c -3.85555,-0.0107 -8.37812,-4.05212 -8.49631,-11.04095 -0.19061,-11.2711 7.50458,-10.2956 10.74205,-9.23943 4.41483,1.44026 4.89213,3.95519 5.66229,6.88036 1.35781,5.15714 2.28563,13.42833 -7.90803,13.40002 z"
           sodipodi:nodetypes="sssssssssssssssssssss" /><path
           id="a1-3"
           style="fill:#000080;fill-opacity:1;stroke:none;stroke-width:0;stroke-dasharray:none;stroke-opacity:1"
           d="M 102.00605,40.963483 C 95.776398,54.69214 79.69131,75.049682 79.905223,83.872008 c 0.05674,2.339964 9.616127,10.718676 15.007175,3.791916 5.391052,-6.926764 10.857332,-38.737734 18.905272,-40.664872 3.0957,-0.741289 6.41872,-2.469149 9.40332,1.690406 4.77449,6.654084 -12.03932,27.451791 -7.28427,37.992378 1.36934,3.035441 4.54953,4.466316 7.10737,3.698267 8.26944,-2.483087 9.57336,-14.54686 12.59062,-22.636698 2.64154,-7.082479 4.68017,-19.09454 4.64703,-22.195909 -0.0121,-1.135366 -0.48354,-28.073689 -17.89208,-24.850024 -12.97506,2.402685 -15.05912,8.532116 -20.38361,20.266011 z m 14.84201,-8.522642 c -0.169,-2.748684 2.77826,-8.634962 7.00378,-4.381949 5.1066,5.139807 3.11551,6.492407 0.91682,8.074711 -2.36442,1.701569 -7.74185,-0.785207 -7.9206,-3.692762 z"
           sodipodi:nodetypes="ssssssaasssasaa" /><path
           style="fill:#000080;fill-opacity:1;stroke:none;stroke-width:0;stroke-dasharray:none;stroke-opacity:1"
           d="m 78.149311,31.674049 c 3.946988,-0.601012 7.140402,2.003213 8.638487,3.479548 1.498083,1.476339 1.667534,4.924995 -2.556587,10.138384 -4.224122,5.213392 -23.983779,13.460717 -29.191804,22.637444 -3.189491,5.619997 2.742022,15.661576 4.534444,11.088037 3.29929,-8.418458 9.225877,-9.994187 12.20529,-10.880374 3.390987,-1.008605 7.056141,0.224905 6.210092,4.631807 -1.539555,8.019209 0.381588,12.636362 -14.023846,20.262768 -5.147191,2.724983 -13.513603,4.546365 -16.732475,4.852177 -4.138431,0.393176 -9.320242,-0.637265 -12.410256,-3.297547 -2.91353,-2.508342 -2.073148,-7.987923 -0.480629,-19.277451 1.559677,-11.056704 8.587502,-18.35487 11.85417,-21.424625 3.847444,-3.615522 27.826587,-20.354986 31.953114,-22.210168 z"
           id="l1-3"
           sodipodi:nodetypes="csssssssssssc" /><path
           style="fill:#000080;fill-opacity:1;stroke:none;stroke-width:0;stroke-dasharray:none;stroke-opacity:1"
           d="m 166.24357,17.935495 c 5.34944,-0.58706 26.50396,0.04213 28.02679,5.767096 3.81645,14.347725 -17.95872,15.783383 -16.82103,30.479913 0.22651,2.926073 1.35164,12.86935 4.88275,5.166828 3.51318,-7.663459 0.74196,-21.146438 15.39085,-22.387032 7.13528,-0.604276 8.96207,2.914663 11.62327,6.464468 1.28824,1.718393 -1.3003,12.067888 4.88872,14.826905 6.18902,2.759017 0.50355,-15.175133 -0.34781,-24.427339 -0.71682,-7.790164 0.36468,-13.855228 21.46361,-13.692932 21.09894,0.162295 31.40623,20.830316 32.81412,36.991219 0.90765,10.418788 0.42832,29.260582 -3.09262,30.739206 -17.50609,7.351718 -45.21512,-3.442657 -52.85312,-7.945548 -8.25853,-4.86872 -12.56694,-12.280408 -14.23896,-17.22044 -1.33483,-3.943761 -1.53553,-4.527837 -5.31886,-0.224302 -5.02262,5.713224 3.16536,22.89483 -26.56488,20.976806 -13.74481,-0.886736 -16.64686,-2.317547 -17.31678,-5.420886 -3.67803,-17.03797 -0.98528,-36.993023 -2.94324,-46.335285 -1.68284,-8.029577 3.90763,-11.947974 20.40719,-13.758677 z"
           id="w1-3"
           sodipodi:nodetypes="ssssssssssssssssss" /><path
           style="fill:#000080;fill-opacity:1;stroke:none;stroke-width:0;stroke-dasharray:none;stroke-opacity:1"
           d="m 90.827973,105.12063 c 0.742653,6.95703 -1.432127,10.92699 -9.974752,12.22535 -8.542642,1.29836 -14.161136,5.22759 -13.917742,15.29011 0.266965,11.03606 28.494369,7.08422 42.348751,3.82258 16.66889,-3.92424 -1.01702,-18.10503 12.11897,-26.67356 19.0633,-12.434899 26.70887,12.06723 27.66643,19.46766 0.9472,7.32041 6.94056,19.78542 -7.76106,26.87187 -17.14387,8.26365 -37.0971,3.84155 -51.050307,3.2363 -17.960227,-0.77906 -34.458597,-5.40992 -39.967601,-12.52139 -4.134001,-5.33651 -6.102966,-8.60668 -8.262679,-18.1312 -0.665392,-2.93444 -1.451402,-11.0422 7.892101,-20.9422 9.343503,-9.899997 13.814311,-11.088859 26.558917,-11.898229 15.854218,-1.00684 13.764388,3.776444 14.348972,9.252709 z"
           id="l2-3"
           sodipodi:nodetypes="sssssssssssss" /><path
           style="fill:#000080;fill-opacity:1;stroke:none;stroke-width:0;stroke-dasharray:none;stroke-opacity:1"
           d="m 230.50139,109.22543 c 0.13526,4.05737 0.0292,11.28845 -1.27251,15.81344 -0.67145,2.33412 -7.57589,18.94704 -3.40812,17.25714 2.37134,-0.96151 3.90934,-3.13803 4.99146,-8.00688 1.08211,-4.86885 1.04604,-11.49662 7.94452,-10.68515 6.89848,0.81148 6.04587,5.09675 5.09902,10.93937 -0.50223,3.09903 0.67041,3.08995 3.4238,7.41909 3.23721,5.08987 5.57177,5.87523 4.20948,-6.92378 -1.13251,-10.64002 -6.15396,-11.82603 -6.25644,-23.33366 -0.11111,-12.476037 4.81967,-15.389809 12.24668,-17.133679 4.22062,-0.991006 8.85378,-0.954352 14.29886,6.676579 6.46741,12.93366 -2.67905,34.59132 -7.41886,46.66068 -2.81903,7.76947 -4.9062,10.39378 -12.5249,10.1003 -4.84506,-0.18664 -7.08594,-10.06517 -11.56873,-14.61717 -3.43287,-3.48586 -6.84218,3.55547 -7.62867,11.71123 -0.62905,6.52292 -13.30746,8.43915 -17.76429,3.50879 -5.99651,-6.63365 -6.87759,-21.01704 -9.37881,-35.47913 -1.06662,-6.16723 -2.48565,-12.70398 -0.15119,-25.877768 2.16582,-12.222123 17.07401,-10.915401 20.75592,-7.099795 4.36469,4.523165 5.29925,11.721903 4.40278,19.070393 z"
           id="w2-3"
           sodipodi:nodetypes="ssssssssssssssssssss" /></g></g></g><g
     inkscape:label="Layer 4"
     inkscape:groupmode="layer"
     id="layer4"
     transform="translate(153.69057,-321.19792)"
     style="visibility:hidden	"><g
       transform="translate(-178.23266,496.67533)"
       style="display:inline"
       id="g4"><path
         style="fill:#ffffff;fill-opacity:1;stroke:#d40000;stroke-width:6.2;stroke-dasharray:none;stroke-opacity:1"
         d="m 118.49858,-155.61285 c 77.90258,-20.87394 123.84974,-16.32734 136.53259,-3.64451 14.0153,14.01531 6.00146,24.08649 11.38921,56.46491 3.77818,22.705497 22.16224,66.646393 6.35118,81.903635 C 256.52163,-5.2080585 182.32831,-38.905196 149.1576,-35.128856 113.55676,-31.075859 70.477083,-8.445915 57.157085,-21.145624 44.604768,-33.113401 27.822138,-107.83187 38.432443,-144.59473 c 9.54066,-33.05673 52.821407,-3.71792 80.066137,-11.01812 z"
         id="outline4"
         sodipodi:nodetypes="ssssssss" /><g
         id="letters4"
         style="fill:#000080;fill-opacity:1;stroke-width:0;stroke-dasharray:none"
         transform="matrix(0.94949955,0,0,0.94949955,9.9141432,-178.59597)"><path
           id="a2-4"
           style="fill:#000080;fill-opacity:1;stroke:none;stroke-width:0;stroke-dasharray:none;stroke-opacity:1"
           d="m 148.52047,89.696814 c -9.16395,-0.153102 -19.30874,-0.180924 -25.27307,1.949197 -6.81639,2.43442 -15.41786,7.62791 -14.44408,13.308229 0.97377,5.68032 21.87054,-3.11252 30.79676,-5.709233 8.92623,-2.59672 26.63977,3.287043 27.12666,5.883763 0.48688,2.59672 -16.92394,1.72231 -21.1436,2.37149 -4.21967,0.64919 -8.92635,-2.27188 -15.58045,6.81664 -6.65409,9.08851 -5.79896,19.06887 -0.76781,24.2623 5.03114,5.19345 13.71726,7.61553 20.37135,3.07126 6.65408,-4.54425 11.88195,-18.34902 16.9131,-17.86214 5.03114,0.48689 -2.15101,11.29273 -0.36577,15.51241 1.78525,4.21966 3.34564,5.48243 5.94237,5.48243 2.59671,0 5.48372,-0.8632 6.78207,-3.9468 1.29836,-3.0836 -2.65116,-10.698 1.27409,-17.91792 4.00022,-7.35781 2.25448,-12.7669 -1.82666,-18.42785 -9.38605,-13.019361 -29.80496,-14.793776 -29.80496,-14.793776 z m 6.20475,25.096546 c 3.51137,0.0577 6.77285,1.83636 -0.37828,9.74824 -7.62786,8.43933 -13.14572,7.62775 -14.44408,6.0048 -1.29835,-1.62296 -5.19356,-5.84273 3.40807,-12.9837 2.92131,-1.62295 6.9787,-2.59671 10.71149,-2.75901 0.2333,-0.0101 0.4687,-0.0142 0.7028,-0.0103 z"
           sodipodi:nodetypes="csssssssssssssscsssccss" /><path
           id="a1-4"
           style="fill:#000080;fill-opacity:1;stroke:none;stroke-width:0;stroke-dasharray:none;stroke-opacity:1"
           d="m 166.86492,26.749836 c -11.31953,-9.736497 -36.49752,6.166429 -44.20194,7.250367 -5.23445,0.736436 -13.27399,-0.265452 -15.72033,10.255933 -2.64155,11.36096 12.01255,18.306003 10.14995,28.960628 -1.3638,6.067735 -0.64476,13.179864 10.87818,13.829046 11.52294,0.649178 0.21626,-15.114979 12.13621,-13.416993 6.12457,0.87244 7.37275,15.577752 14.67603,15.090866 7.30327,-0.486883 19.2917,1.995214 17.4941,-8.531859 -2.36636,-13.857891 -11.65539,-7.008721 -15.37857,-22.465126 -1.99823,-8.29543 7.82558,-3.277824 9.6636,-6.750791 3.77705,-7.136801 6.4244,-18.95655 0.30277,-24.222071 z m -31.05585,14.04761 c 3.47121,0.04457 5.5413,4.133678 3.45763,11.357676 -2.00796,6.961538 -6.6839,9.279685 -9.85666,8.870296 -5.03115,-0.649181 -9.735,-9.204383 -7.62518,-14.235525 1.84611,-4.402249 12.11598,-6.016855 14.02421,-5.992447 z"
           sodipodi:nodetypes="assssssssaasssss" /><path
           style="fill:#000080;fill-opacity:1;stroke:none;stroke-width:0;stroke-dasharray:none;stroke-opacity:1"
           d="m 67.283566,30.220917 c 8.48816,5.809918 -2.307537,13.45908 -3.793882,21.759759 -2.08802,11.660809 -9.170535,25.460239 3.979717,22.519737 2.284241,-0.510774 12.36751,-8.986251 24.269219,-10.025639 9.67766,-0.845159 22.35482,6.93506 19.27121,10.667847 -3.0836,3.732789 -5.69596,10.697129 -25.155733,9.900002 C 59.717617,83.971999 62.56389,96.138882 57.208152,96.463473 51.852414,96.788064 43.316218,98.723385 41.012679,93.595387 39.272137,89.720699 39.853784,74.220476 39.244898,66.141355 38.279568,53.332681 39.327805,43.027388 43.17926,36.407323 48.270122,27.656905 58.795406,24.410998 67.283566,30.220917 Z"
           id="l1-4"
           sodipodi:nodetypes="zsssssssssz" /><path
           style="fill:#000080;fill-opacity:1;stroke:none;stroke-width:0;stroke-dasharray:none;stroke-opacity:1"
           d="m 194.21135,37.313025 c 1.74565,5.269742 -1.44146,15.75222 -1.27917,18.67353 0.1623,2.921312 3.60191,9.812745 7.98388,3.158646 4.38196,-6.654099 -3.85843,-15.243519 4.58091,-16.704175 8.43935,-1.460656 11.08956,0.624496 10.56837,11.217552 -0.42242,8.585705 2.56967,12.494095 9.77347,6.47261 3.46209,-2.893878 -4.38206,-17.652161 -5.13932,-25.937526 -0.712,-7.790164 1.62557,-11.188766 11.07272,-10.723694 9.02578,0.444329 19.53949,7.812904 20.84777,16.427579 1.69488,11.160307 -9.64921,7.354192 -9.71486,11.278626 -0.24762,14.802408 4.54772,22.714339 2.60018,24.499586 -1.94754,1.785247 -4.71934,5.060874 -10.00907,6.760545 -5.51803,1.773029 -27.69752,-3.05732 -27.71056,-7.075539 -0.034,-10.49071 -2.0348,-12.329181 -6.81639,0 -1.74479,4.498885 -7.61828,6.33213 -15.57074,5.682951 -7.95245,-0.649182 -7.93064,-6.469989 -4.84704,-14.097857 3.08361,-7.627869 -3.25984,-29.132831 -4.52679,-35.072307 -1.23104,-5.771103 -0.70133,-9.213845 5.70387,-11.363277 11.3722,-3.816238 9.3673,7.397808 12.48277,16.80275 z"
           id="w1-4"
           sodipodi:nodetypes="sssssssssssssssssss" /><path
           style="fill:#000080;fill-opacity:1;stroke:none;stroke-width:0;stroke-dasharray:none;stroke-opacity:1"
           d="m 98.464773,99.519407 c -0.78963,8.335693 -16.488701,7.915113 -21.502612,12.984693 -2.995022,3.02828 -4.069102,6.60093 -3.952122,15.38575 0.1283,9.63475 31.190291,-6.89853 37.904221,-9.27729 8.4153,-2.98155 9.62246,4.39232 8.72436,10.62657 -0.89809,6.23424 -2.69428,11.76006 -11.29035,11.47669 -8.596067,-0.28338 -12.198687,0.98593 -23.386186,10.11389 -4.155693,3.39066 -8.724369,5.38413 -17.833636,4.25063 -9.109268,-1.1335 -13.98465,-5.10075 -14.62615,-10.20151 -0.641496,-5.10075 0.532606,-7.16236 1.483462,-19.24423 0.841966,-10.69827 -0.363886,-9.20205 4.1266,-20.56997 3.578321,-9.058728 19.639452,-13.972763 31.330253,-13.654327 6.554707,0.178538 9.4035,4.083517 9.02216,8.109104 z"
           id="l2-4"
           sodipodi:nodetypes="asssssssssssa" /><path
           style="fill:#000080;fill-opacity:1;stroke:none;stroke-width:0;stroke-dasharray:none;stroke-opacity:1"
           d="m 194.92426,86.508525 c 4.05949,-0.09607 12.10842,4.88107 12.27071,9.58763 0.1623,4.706545 -4.96308,14.276715 -2.11812,22.159805 0.60852,1.68616 5.18254,2.37726 6.4809,-2.49159 1.29836,-4.86885 7.05372,-28.287321 15.33077,-27.475847 8.27705,0.811477 4.78299,6.151171 3.73279,12.009837 -1.76327,9.83658 -5.25351,21.07413 -2.4771,26.58016 4.109,8.14873 9.04883,10.36305 10.91513,4.07656 3.0836,-10.38689 -5.76364,-27.08319 -0.24561,-37.632372 5.51803,-10.54918 16.14213,-4.669733 19.95138,-1.415301 4.24148,3.623711 11.37025,14.677653 7.15057,23.117003 -4.21967,8.43934 -6.88445,2.11243 -8.18281,10.71369 -1.29836,8.60163 10.23853,17.40223 3.25984,23.24485 -6.97868,5.84262 -23.32292,5.5861 -28.35407,3.15167 -5.03115,-2.43443 -15.21646,-4.29733 -13.43121,-11.11372 1.78525,-6.8164 -3.2459,-7.30328 -8.27705,-3.08361 -5.03115,4.21967 -1.94319,5.83958 -11.6809,6.81335 -9.7377,0.97378 -12.35196,-2.06045 -11.03082,-15.254 1.49263,-14.90617 -2.60471,-19.05775 -2.39079,-23.51795 0.64235,-13.393158 -3.04398,-19.182867 9.09639,-19.470165 z"
           id="w2-4"
           sodipodi:nodetypes="ssssssssssssssssssss" /></g></g></g></svg>
